<?xml version="1.0" encoding="UTF-8"?> <svg xmlns="http://www.w3.org/2000/svg" width="52" height="50" viewBox="0 0 52 50" fill="none"><path d="M6.95296 38.0078C4.88529 36.0698 5.1125 33.6303 5.317 31.2364C5.52149 28.7741 7.74822 26.7677 10.2022 26.6537C12.7924 26.517 15.2691 28.2041 15.6554 30.6892C16.0416 33.1971 16.337 35.7962 14.133 38.0078C15.519 38.9425 16.8596 39.8545 18.2002 40.7209C18.3592 40.8121 18.6774 40.8121 18.8137 40.6981C20.1315 39.8317 21.4494 38.9425 22.8581 38.0078C20.745 35.9558 20.995 33.4251 21.2449 30.9856C21.4948 28.6601 23.767 26.7449 26.1301 26.6537C28.7203 26.5625 31.0607 28.2725 31.606 30.712C32.1968 33.3339 31.7196 35.819 30.0836 38.0534C31.4242 38.9425 32.7648 39.8545 34.1054 40.7209C34.2417 40.8121 34.5825 40.7893 34.7189 40.6981C36.0594 39.8317 37.3546 38.9425 38.7633 38.0306C36.6502 35.9786 36.8547 33.4707 37.1501 31.0084C37.4227 28.6145 39.6949 26.7449 42.1489 26.6537C44.6482 26.5625 46.9659 28.3181 47.5339 30.712C48.1247 33.2655 47.6248 35.8418 46.0115 38.0534C47.284 38.9197 48.5109 39.8545 49.8288 40.6069C51.3966 41.496 52.1918 42.6816 51.8965 44.5055C51.8737 44.6651 51.8965 44.8019 51.8965 44.9615C51.8056 46.0559 52.26 47.2414 51.0558 48.085C49.3289 49.2934 47.5112 50.1597 45.3753 49.9546C45.0572 49.9318 44.5119 49.225 44.5801 48.9742C44.671 48.5638 45.1481 48.1306 45.5571 47.971C46.625 47.5606 47.8066 47.3782 48.8518 46.8995C49.2607 46.7171 49.6016 46.0331 49.7152 45.5087C50.1014 43.8216 49.4652 42.6132 47.852 41.8836C47.2612 41.6328 46.6932 41.2681 46.2615 40.8121C44.8073 39.3073 42.9441 39.2845 41.0582 39.2617C40.7856 39.2617 40.4902 39.4441 40.2402 39.6037C39.0587 40.3789 37.9226 41.1997 36.7411 41.9292C36.1503 42.294 35.8549 42.6816 35.9458 43.3884C36.014 43.8444 36.0822 44.3687 35.9004 44.7335C35.7186 45.1439 35.2415 45.6911 34.8779 45.6911C34.5371 45.6911 33.8554 45.0299 33.9009 44.7563C34.1508 43.1376 33.0147 42.5904 31.9695 41.9064C31.2424 41.4276 30.4017 41.0629 29.811 40.4473C28.4477 39.0109 26.6754 39.5125 25.0621 39.2617C24.9031 39.2389 24.6986 39.3529 24.5395 39.4669C22.8581 40.5841 21.1767 41.6556 19.5635 42.8412C19.2227 43.092 19.0636 43.7076 19.0182 44.1864C18.95 44.9615 18.8818 45.7595 17.9275 45.7367C16.9959 45.7367 16.7233 44.9615 16.8823 44.1864C17.1323 42.7956 16.5188 41.9976 15.3373 41.4276C14.9283 41.2453 14.5193 40.9717 14.2239 40.6525C12.8152 39.1705 10.9747 39.3529 9.20241 39.2389C8.97519 39.2161 8.70253 39.3985 8.49804 39.5353C6.90752 40.5841 5.33972 41.61 3.77192 42.7044C2.65856 43.4796 2.74945 46.3751 3.97642 46.8767C5.24883 47.3782 6.63486 47.8342 7.97544 47.857C18.4274 47.9254 28.8794 47.9026 39.3314 47.8798C39.8312 47.8798 40.3084 47.8798 40.8083 47.8798C41.5354 47.8798 42.2625 48.0394 42.2852 48.9286C42.3079 49.8178 41.6035 50.0002 40.8537 50.0002C40.6265 50.0002 40.3993 50.0002 40.1721 50.0002C29.3793 50.0002 18.5865 50.0002 7.79366 50.0002C5.54422 50.0002 3.49926 49.4302 1.79514 47.971C1.36343 47.6062 0.999879 46.8995 0.999879 46.3523C0.999879 41.5188 0.318228 42.3624 4.40813 39.6721C5.27156 39.1933 6.06682 38.6233 6.95296 38.0078ZM29.6292 33.1059C29.6292 32.6955 29.6519 32.2624 29.6065 31.852C29.4702 30.0508 28.1296 28.7513 26.4254 28.7741C24.7213 28.7969 23.3807 30.0964 23.2899 31.8976C23.2444 32.6499 23.2444 33.4251 23.2899 34.1775C23.4035 35.9558 24.744 37.2554 26.4709 37.2326C28.1977 37.2326 29.5156 35.9558 29.6292 34.1319C29.6519 33.7899 29.6292 33.4479 29.6292 33.1059ZM45.5344 33.1059C45.5344 32.7183 45.5571 32.3536 45.5344 31.966C45.4662 30.1192 44.1029 28.7741 42.3534 28.7741C40.6492 28.7969 39.3086 30.1192 39.2178 31.8976C39.1723 32.6955 39.1723 33.4935 39.2405 34.2915C39.3768 36.0242 40.6947 37.2098 42.4215 37.2326C44.1029 37.2326 45.4208 35.9786 45.5571 34.2459C45.5571 33.8811 45.5344 33.4935 45.5344 33.1059ZM7.36195 32.9691C7.36195 33.3111 7.33923 33.6531 7.36195 33.9951C7.45284 35.9558 8.7707 37.2782 10.5884 37.2326C12.3607 37.2098 13.6559 35.8874 13.7013 33.9951C13.724 33.2427 13.7467 32.4675 13.6786 31.7152C13.4741 29.5948 11.4519 28.2953 9.47507 28.9793C7.99816 29.4808 7.36195 30.6892 7.36195 32.9691Z" fill="#00B9FF"></path><path d="M40.104 8.07223C39.0361 8.75621 37.9909 9.37178 37.0139 10.0558C36.8094 10.1926 36.673 10.6257 36.7185 10.8765C37.2638 13.9316 37.8546 16.9639 38.468 20.247C39.4451 20.247 40.672 20.247 41.899 20.247C42.6488 20.247 43.3532 20.3382 43.3759 21.2502C43.4214 22.2533 42.6716 22.3673 41.8763 22.3673C40.8993 22.3673 39.8995 22.3217 38.9225 22.4129C38.6498 22.4357 38.2181 22.7549 38.1954 22.9829C38.0818 23.7581 37.9909 24.5105 36.9911 24.4421C35.9914 24.3737 36.0141 23.5529 35.9914 22.8233C35.9914 22.7093 35.9232 22.6181 35.8778 22.4585C35.128 22.2761 33.9237 22.6409 33.9464 21.2958C33.9692 20.0646 35.0825 20.361 36.1504 20.133C35.696 17.2147 35.2188 14.2964 34.7871 11.4693C32.3332 11.9481 30.1746 12.3357 28.0388 12.7917C27.8116 12.8373 27.5844 13.316 27.5616 13.6124C27.4935 14.6384 27.5389 15.6644 27.5389 16.6903C27.5389 17.3743 27.3799 18.0355 26.5164 18.0583C25.6076 18.0811 25.4031 17.4199 25.4031 16.6675C25.4031 15.4136 25.4031 14.1824 25.4031 12.9969C23.0173 12.4725 20.7451 11.9709 18.1776 11.4009C17.7231 14.2736 17.246 17.1691 16.7916 20.0874C17.7459 20.4294 18.9956 19.9962 18.9956 21.3186C18.9956 22.6409 17.7913 22.2533 16.9961 22.4813C16.9733 22.8461 17.0642 23.2793 16.8824 23.5073C16.6098 23.8949 16.2008 24.3509 15.7918 24.3965C15.4964 24.4193 14.8829 23.8493 14.8829 23.5301C14.8829 22.4129 14.2922 22.3673 13.4287 22.3673C11.2247 22.4129 9.04346 22.3901 6.83946 22.3673C5.49888 22.3673 5.2035 22.0937 5.27166 20.7486C5.56704 13.4528 8.70264 7.61624 14.7466 3.60358C26.062 -3.89736 40.9447 0.776479 46.1025 13.316C47.0796 15.6872 47.6022 18.1723 47.6476 20.7486C47.6703 21.5238 47.6249 22.2989 46.6251 22.3217C45.6481 22.3445 45.5572 21.5694 45.5118 20.7942C45.33 15.9152 43.1942 10.8537 40.104 8.07223ZM14.4739 20.1786C15.0874 16.9639 15.6782 13.8632 16.2462 10.7397C16.2917 10.5345 16.1326 10.2154 15.9736 10.1014C14.9511 9.41738 13.8832 8.75621 12.7471 8.04943C9.49789 11.4237 7.79377 15.4592 7.4075 20.1786C9.88416 20.1786 12.2927 20.1786 14.4739 20.1786ZM25.2895 10.7625C25.2895 7.77584 25.2895 5.13113 25.2895 2.46362C22.8582 2.62322 19.6545 7.04626 19.2682 9.46298C21.2223 9.87337 23.1763 10.3066 25.2895 10.7625ZM33.8783 9.39458C32.4014 6.22549 30.9472 3.51239 27.6298 2.34963C27.6298 5.19953 27.6298 7.86704 27.6298 10.7853C29.7202 10.3066 31.6743 9.87337 33.8783 9.39458ZM17.0188 8.25462C17.9958 6.59028 18.882 5.08553 19.7454 3.58078C19.6772 3.48959 19.6318 3.39839 19.5636 3.30719C17.8595 4.28756 16.1553 5.29072 14.2013 6.40789C15.3601 7.16026 16.1553 7.68464 17.0188 8.25462ZM35.9005 8.27742C36.7639 7.68464 37.5819 7.13746 38.6725 6.38509C36.7185 5.26793 35.0143 4.28756 33.3329 3.30719C33.2648 3.39839 33.2193 3.48959 33.1512 3.58078C34.0373 5.10833 34.9235 6.61308 35.9005 8.27742Z" fill="#00B9FF"></path><path d="M25.4713 22.2297C25.4713 21.6372 25.4713 21.0219 25.4713 20.3154C26.1302 20.3154 26.7437 20.3154 27.3572 20.3154C27.8117 22.3209 27.539 22.6172 25.4713 22.2297Z" fill="#00B9FF"></path><path d="M23.1991 22.2755C21.0633 22.549 20.927 22.4122 21.2678 20.3384C21.8813 20.3384 22.4947 20.3384 23.1991 20.3384C23.1991 20.9537 23.1991 21.569 23.1991 22.2755Z" fill="#00B9FF"></path><path d="M29.6748 22.2983C29.6748 21.6374 29.6748 21.0448 29.6748 20.3384C30.311 20.3384 30.9699 20.3384 31.6062 20.3384C31.9924 22.4122 31.9243 22.5034 29.6748 22.2983Z" fill="#00B9FF"></path></svg> 