<?xml version="1.0" encoding="UTF-8"?> <svg xmlns="http://www.w3.org/2000/svg" width="15" height="7" viewBox="0 0 15 7" fill="none"><path d="M14.4516 2.33256L12.0326 0.164051C11.9745 0.112069 11.9053 0.0708094 11.8292 0.0426528C11.753 0.0144963 11.6713 0 11.5888 0C11.5063 0 11.4246 0.0144963 11.3484 0.0426528C11.2722 0.0708094 11.2031 0.112069 11.145 0.164051C11.0286 0.267963 10.9632 0.408529 10.9632 0.555048C10.9632 0.701566 11.0286 0.842132 11.145 0.946044L13.3702 2.93708H0.625069C0.45929 2.93708 0.300302 2.99551 0.183078 3.09952C0.0658553 3.20352 0 3.34459 0 3.49168H0C0 3.63877 0.0658553 3.77984 0.183078 3.88385C0.300302 3.98785 0.45929 4.04629 0.625069 4.04629H13.4077L11.145 6.04841C11.0864 6.09997 11.0399 6.16131 11.0082 6.22889C10.9764 6.29647 10.9601 6.36896 10.9601 6.44218C10.9601 6.51539 10.9764 6.58788 11.0082 6.65547C11.0399 6.72305 11.0864 6.78439 11.145 6.83595C11.2031 6.88793 11.2722 6.92919 11.3484 6.95735C11.4246 6.9855 11.5063 7 11.5888 7C11.6713 7 11.753 6.9855 11.8292 6.95735C11.9053 6.92919 11.9745 6.88793 12.0326 6.83595L14.4516 4.68408C14.8028 4.37212 15 3.94923 15 3.50832C15 3.06741 14.8028 2.64452 14.4516 2.33256Z" fill="white"></path></svg> 